<svg width="28" height="28" viewBox="0 0 28 28" fill="none" xmlns="http://www.w3.org/2000/svg">
<path d="M20.6666 15.3334H15.3333V20.6667H12.6666V15.3334H7.33329V12.6667H12.6666V7.33342H15.3333V12.6667H20.6666V15.3334ZM14 0.666748C12.249 0.666748 10.5152 1.01163 8.89751 1.68169C7.27984 2.35175 5.80998 3.33388 4.57187 4.57199C2.07138 7.07248 0.666626 10.4639 0.666626 14.0001C0.666626 17.5363 2.07138 20.9277 4.57187 23.4282C5.80998 24.6663 7.27984 25.6484 8.89751 26.3185C10.5152 26.9885 12.249 27.3334 14 27.3334C17.5362 27.3334 20.9276 25.9287 23.4281 23.4282C25.9285 20.9277 27.3333 17.5363 27.3333 14.0001C27.3333 12.2491 26.9884 10.5153 26.3184 8.89764C25.6483 7.27996 24.6662 5.81011 23.4281 4.57199C22.1899 3.33388 20.7201 2.35175 19.1024 1.68169C17.4847 1.01163 15.7509 0.666748 14 0.666748Z" fill="white"/>
</svg>
