<svg width="160" height="48" viewBox="0 0 160 48" fill="none" xmlns="http://www.w3.org/2000/svg">
<path d="M146.177 26.2177C146.177 22.0357 149.349 18.8368 153.587 18.8368C156.338 18.8368 158.723 20.2677 159.846 22.4571L157.236 23.9725C156.618 22.6539 155.243 21.8117 153.559 21.8117C151.089 21.8117 149.209 23.692 149.209 26.2177C149.209 28.7441 151.089 30.6243 153.559 30.6243C155.243 30.6243 156.618 29.7543 157.292 28.4636L159.902 29.9511C158.723 32.1684 156.338 33.6001 153.587 33.6001C149.349 33.6001 146.177 30.3718 146.177 26.2177ZM144.493 19.2009L139.105 33.6838C137.785 37.2483 135.343 39.0449 132.256 38.8481V36.0134C134.221 36.1257 135.287 35.1999 135.989 33.3189L136.073 33.1228L130.179 19.2009H133.407L137.673 29.4181L141.266 19.2009H144.493ZM127.175 19.2009V33.2344H124.2V24.3095L117.015 33.2344H114.685V19.2009H117.661V28.0987L124.846 19.2009H127.175ZM110.812 26.2177C110.812 30.3997 107.641 33.6001 103.823 33.6001C101.634 33.6001 99.9785 32.7014 98.9117 31.2418V38.8481H95.8801V19.2009H98.9117V21.2222C99.9785 19.7347 101.634 18.8368 103.823 18.8368C107.641 18.8368 110.812 22.0643 110.812 26.2177ZM107.781 26.2177C107.781 23.6076 105.872 21.7273 103.346 21.7273C100.821 21.7273 98.9117 23.6076 98.9117 26.2177C98.9117 28.8285 100.821 30.7088 103.346 30.7088C105.872 30.7088 107.781 28.8285 107.781 26.2177ZM91.2495 19.2009V33.2344H88.2746V24.3095L81.0889 33.2344H78.7593V19.2009H81.7343V28.0987L88.9199 19.2009H91.2495ZM56.3052 23.4116C56.3052 29.109 60.5996 33.5993 66.5782 33.5993C70.1985 33.5993 73.3982 31.7469 75.0259 28.8843L72.2198 27.2845C71.2088 29.2213 69.048 30.4562 66.5782 30.4562C62.3396 30.4562 59.5335 27.4533 59.5335 23.4116C59.5335 19.3698 62.3396 16.3662 66.5782 16.3662C69.048 16.3662 71.1809 17.6018 72.2198 19.5379L75.0259 17.9102C73.3703 15.0475 70.1706 13.2231 66.5782 13.2231C60.5996 13.2231 56.3052 17.7134 56.3052 23.4116ZM28.2812 39.8524C28.9506 39.8524 29.495 39.3125 29.495 38.6491C29.495 37.9841 28.9506 37.4413 28.2812 37.4413C27.6102 37.4413 27.0839 37.9721 27.0839 38.6491C27.0839 39.3239 27.6102 39.8524 28.2812 39.8524ZM34.584 36.0564C35.2527 36.0564 35.7978 35.5165 35.7978 34.8523C35.7978 34.1874 35.2527 33.6453 34.584 33.6453C33.913 33.6453 33.3867 34.1761 33.3867 34.8523C33.3867 35.5279 33.913 36.0564 34.584 36.0564ZM38.2932 29.8629C39.1301 29.8629 39.8101 29.1881 39.8101 28.3588C39.8101 27.5272 39.1301 26.8495 38.2932 26.8495C37.4549 26.8495 36.7975 27.5137 36.7975 28.3588C36.7975 29.2024 37.4549 29.8629 38.2932 29.8629ZM38.3649 22.6177C39.3683 22.6177 40.1856 21.8087 40.1856 20.8128C40.1856 19.8154 39.3683 19.0019 38.3649 19.0019C37.3584 19.0019 36.5698 19.798 36.5698 20.8128C36.5698 21.8253 37.3584 22.6177 38.3649 22.6177ZM35.0928 16.575C36.2637 16.575 37.2166 15.6303 37.2166 14.4693C37.2166 13.3052 36.2637 12.356 35.0928 12.356C33.9182 12.356 32.9984 13.2849 32.9984 14.4693C32.9984 15.6499 33.9182 16.575 35.0928 16.575ZM28.2721 13.2502C29.6111 13.2502 30.6997 12.1721 30.6997 10.8444C30.6997 9.51375 29.6111 8.42961 28.2721 8.42961C26.9301 8.42961 25.8792 9.49113 25.8792 10.8444C25.8792 12.1939 26.9301 13.2502 28.2721 13.2502ZM20.6741 13.5518C22.1804 13.5518 23.4048 12.3379 23.4048 10.8444C23.4048 9.34789 22.1804 8.12804 20.6741 8.12804C19.164 8.12804 17.9811 9.32226 17.9811 10.8444C17.9811 12.3628 19.164 13.5518 20.6741 13.5518ZM14.0132 17.2143C15.5187 17.2143 16.7439 15.9997 16.7439 14.507C16.7439 13.0104 15.5187 11.7906 14.0132 11.7906C12.5031 11.7906 11.3202 12.9848 11.3202 14.507C11.3202 16.0246 12.5031 17.2143 14.0132 17.2143ZM10.5383 23.257C11.8765 23.257 12.966 22.1781 12.966 20.8505C12.966 19.5198 11.8765 18.4364 10.5383 18.4364C9.19635 18.4364 8.14538 19.498 8.14538 20.8505C8.14538 22.2 9.19635 23.257 10.5383 23.257ZM10.5406 30.4653C11.7114 30.4653 12.6644 29.5214 12.6644 28.3603C12.6644 27.1955 11.7114 26.2471 10.5406 26.2471C9.36674 26.2471 8.4462 27.1759 8.4462 28.3603C8.4462 29.541 9.36674 30.4653 10.5406 30.4653ZM14.4572 36.6587C15.4607 36.6587 16.2779 35.849 16.2779 34.8538C16.2779 33.8557 15.4607 33.0429 14.4572 33.0429C13.4507 33.0429 12.6621 33.8391 12.6621 34.8538C12.6621 35.8656 13.4507 36.6587 14.4572 36.6587ZM20.6462 40.1532C21.4823 40.1532 22.1631 39.4792 22.1631 38.6491C22.1631 37.8183 21.4823 37.1405 20.6462 37.1405C19.8071 37.1405 19.1504 37.804 19.1504 38.6491C19.1504 39.4927 19.8071 40.1532 20.6462 40.1532ZM20.9477 32.8952C21.9512 32.8952 22.7677 32.0854 22.7677 31.0903C22.7677 30.0928 21.9512 29.2793 20.9477 29.2793C19.9413 29.2793 19.1527 30.0747 19.1527 31.0903C19.1527 32.102 19.9413 32.8952 20.9477 32.8952ZM17.2641 26.7846C18.4357 26.7846 19.3886 25.8407 19.3886 24.6789C19.3886 23.5149 18.4357 22.5657 17.2641 22.5657C16.0902 22.5657 15.1697 23.4945 15.1697 24.6789C15.1697 25.8596 16.0902 26.7846 17.2641 26.7846ZM24.4814 26.7846C25.653 26.7846 26.6059 25.8407 26.6059 24.6797C26.6059 23.5149 25.653 22.5657 24.4814 22.5657C23.3075 22.5657 22.387 23.4945 22.387 24.6797C22.387 25.8596 23.3075 26.7846 24.4814 26.7846ZM20.8739 20.6989C22.2121 20.6989 23.3015 19.6201 23.3015 18.2932C23.3015 16.9625 22.2121 15.8784 20.8739 15.8784C19.5319 15.8784 18.4802 16.9399 18.4802 18.2932C18.4802 19.6427 19.5319 20.6989 20.8739 20.6989ZM28.254 20.3981C29.4249 20.3981 30.3778 19.4535 30.3778 18.2924C30.3778 17.1284 29.4249 16.1792 28.254 16.1792C27.0794 16.1792 26.1596 17.108 26.1596 18.2924C26.1596 19.4731 27.0794 20.3981 28.254 20.3981ZM31.9347 26.483C32.9389 26.483 33.7554 25.6741 33.7554 24.6789C33.7554 23.6807 32.9389 22.8672 31.9347 22.8672C30.9282 22.8672 30.1396 23.6634 30.1396 24.6789C30.1396 25.6907 30.9282 26.483 31.9347 26.483ZM28.2578 32.5242C29.0946 32.5242 29.7754 31.8502 29.7754 31.0202C29.7754 30.1886 29.0946 29.5108 28.2578 29.5108C27.4194 29.5108 26.762 30.1743 26.762 31.0202C26.762 31.8638 27.4194 32.5242 28.2578 32.5242ZM13.2321 45.3688C14.2363 45.3688 15.0528 44.5591 15.0528 43.5639C15.0528 42.5665 14.2363 41.753 13.2321 41.753C12.2256 41.753 11.437 42.5491 11.437 43.5639C11.437 44.5757 12.2256 45.3688 13.2321 45.3688ZM5.44785 37.6796C6.61944 37.6796 7.57165 36.7356 7.57165 35.5738C7.57165 34.4098 6.61944 33.4614 5.44785 33.4614C4.27399 33.4614 3.35345 34.3902 3.35345 35.5738C3.35345 36.7545 4.27399 37.6796 5.44785 37.6796ZM2.3937 27.1171C3.73192 27.1171 4.82134 26.039 4.82134 24.7113C4.82134 23.3807 3.73192 22.2965 2.3937 22.2965C1.05097 22.2965 0 23.358 0 24.7113C0 26.0608 1.05097 27.1171 2.3937 27.1171ZM5.10029 16.4664C6.60587 16.4664 7.83024 15.2526 7.83024 13.7598C7.83024 12.2633 6.60587 11.0427 5.10029 11.0427C3.59018 11.0427 2.40728 12.2369 2.40728 13.7598C2.40728 15.2782 3.59018 16.4664 5.10029 16.4664ZM13.2223 9.15187C15.0619 9.15187 16.5592 7.66815 16.5592 5.84366C16.5592 4.01388 15.0619 2.52263 13.2223 2.52263C11.3767 2.52263 9.93067 3.98222 9.93067 5.84366C9.93067 7.69906 11.3767 9.15187 13.2223 9.15187ZM24.4776 5.42372C25.9832 5.42372 27.2083 4.2099 27.2083 2.71714C27.2083 1.21985 25.9832 0 24.4776 0C22.9675 0 21.7846 1.19421 21.7846 2.71714C21.7846 4.23478 22.9675 5.42372 24.4776 5.42372ZM35.2105 8.24791C36.5487 8.24791 37.6373 7.16905 37.6373 5.84215C37.6373 4.51147 36.5487 3.42733 35.2105 3.42733C33.8677 3.42733 32.816 4.4881 32.816 5.84215C32.816 7.19092 33.8677 8.24791 35.2105 8.24791ZM43.6989 15.864C44.8705 15.864 45.8227 14.9201 45.8227 13.7583C45.8227 12.5943 44.8705 11.6458 43.6989 11.6458C42.525 11.6458 41.6045 12.5747 41.6045 13.7583C41.6045 14.9397 42.525 15.864 43.6989 15.864ZM46.0933 26.5147C47.0968 26.5147 47.9141 25.7058 47.9141 24.7098C47.9141 23.7124 47.0968 22.8989 46.0933 22.8989C45.0868 22.8989 44.2982 23.695 44.2982 24.7098C44.2982 25.7223 45.0868 26.5147 46.0933 26.5147ZM43.2382 37.1209C44.0743 37.1209 44.7551 36.4469 44.7551 35.6176C44.7551 34.786 44.0743 34.1082 43.2382 34.1082C42.3991 34.1082 41.7417 34.7717 41.7417 35.6176C41.7417 36.4605 42.3991 37.1209 43.2382 37.1209ZM35.2188 44.6775C35.8875 44.6775 36.4318 44.1384 36.4318 43.475C36.4318 42.8092 35.8875 42.2672 35.2188 42.2672C34.5478 42.2672 34.0215 42.7979 34.0215 43.475C34.0215 44.149 34.5478 44.6775 35.2188 44.6775ZM24.4859 48C23.6475 48 22.9894 47.3396 22.9894 46.4959C22.9894 45.65 23.6475 44.9866 24.4859 44.9866C25.322 44.9866 26.0028 45.6643 26.0028 46.4959C26.0028 47.326 25.322 48 24.4859 48Z" fill="white"/>
</svg>
